<?xml version="1.0" standalone="no"?>
<!DOCTYPE svg PUBLIC "-//W3C//DTD SVG 20010904//EN"
 "http://www.w3.org/TR/2001/REC-SVG-20010904/DTD/svg10.dtd">
<svg version="1.0" xmlns="http://www.w3.org/2000/svg"
 width="16.000000pt" height="16.000000pt" viewBox="0 0 16.000000 16.000000"
 preserveAspectRatio="xMidYMid meet">
<metadata>
Created by potrace 1.11, written by Peter Selinger 2001-2013
</metadata>
<g transform="translate(0.000000,16.000000) scale(0.003125,-0.003125)"
fill="#000000" stroke="none">
<path d="M495 5108 c-27 -5 -92 -29 -144 -54 -131 -64 -221 -154 -284 -285
-67 -139 -83 -266 -52 -413 36 -171 168 -340 327 -420 l78 -39 0 -371 -1 -371
-67 -32 c-226 -109 -364 -345 -349 -597 9 -164 68 -295 188 -415 53 -53 68
-76 78 -115 16 -63 48 -126 105 -204 l46 -62 0 -253 0 -254 -77 -39 c-160 -80
-292 -249 -328 -420 -31 -147 -15 -274 52 -413 63 -131 153 -221 284 -284 139
-67 266 -83 413 -52 171 36 340 168 420 328 l39 77 371 0 371 0 27 -58 c78
-167 234 -296 414 -342 286 -73 589 67 717 332 l32 67 371 1 371 0 39 -77 c54
-108 170 -224 275 -276 267 -131 589 -62 770 165 153 192 181 455 72 677 -52
105 -168 221 -275 275 l-78 39 0 371 1 371 67 32 c164 79 287 230 332 409 73
286 -67 589 -332 717 l-67 32 -1 371 0 371 78 39 c107 54 223 170 275 275 62
126 81 266 56 405 -15 83 -87 228 -149 296 -187 209 -493 267 -749 141 -105
-52 -221 -168 -275 -275 l-39 -78 -371 0 -371 1 -32 67 c-79 164 -230 287
-409 332 -286 73 -589 -67 -717 -332 l-32 -67 -371 -1 -371 0 -39 78 c-54 107
-170 223 -275 275 -125 61 -276 81 -414 55z m275 -105 c125 -34 248 -127 310
-236 16 -28 30 -55 30 -59 0 -4 -142 -8 -315 -10 l-315 -3 -27 -28 -28 -27 -3
-315 c-2 -173 -6 -315 -10 -315 -22 0 -119 68 -165 114 -97 99 -149 228 -149
371 0 139 42 250 134 350 142 156 336 213 538 158z m1961 -7 c123 -42 232
-133 292 -244 l28 -52 -491 0 -491 0 28 52 c121 222 392 326 634 244z m1909 7
c30 -8 81 -28 112 -45 69 -37 176 -145 211 -214 106 -209 70 -457 -90 -620
-46 -46 -143 -114 -165 -114 -4 0 -8 142 -10 315 l-3 315 -28 27 -27 28 -315
3 c-173 2 -315 6 -315 10 0 21 66 117 110 161 136 136 330 186 520 134z
m-2652 -765 c74 -177 254 -317 465 -362 l27 -6 0 -130 0 -130 -427 0 -428 0
-252 252 -251 251 23 32 c13 17 36 57 50 88 l26 57 373 0 372 0 22 -52z m1937
-5 c14 -31 37 -71 50 -88 l23 -32 -251 -251 -252 -252 -428 0 -427 0 0 130 0
130 28 6 c81 18 112 29 172 59 128 64 242 183 292 303 l22 52 372 0 373 0 26
-57z m-2822 30 c-23 -64 -117 -170 -189 -215 -78 -49 -74 -54 -74 97 l0 135
135 0 c124 0 134 -1 128 -17z m1937 12 c0 -24 -54 -101 -109 -156 -216 -215
-561 -205 -764 21 -42 46 -87 117 -87 135 0 3 216 5 480 5 264 0 480 -2 480
-5z m1240 -130 c0 -153 5 -148 -87 -88 -57 37 -109 91 -146 150 -48 77 -53 73
98 73 l135 0 0 -135z m-2770 -1077 l0 -428 -130 0 -130 0 -6 28 c-22 107 -70
210 -133 289 -51 64 -158 145 -228 175 l-53 22 0 372 0 372 63 30 c34 16 73
39 87 50 l25 21 253 -252 252 -252 0 -427z m2723 857 l57 -26 0 -373 0 -372
-52 -22 c-177 -74 -317 -254 -362 -464 l-6 -28 -130 0 -130 0 0 427 0 428 252
252 251 251 32 -23 c17 -13 57 -36 88 -50z m-783 -1365 l0 -890 -890 0 -890 0
0 890 0 890 890 0 890 0 0 -890z m-3057 348 l-27 -28 92 -93 c87 -87 92 -95
92 -135 l0 -42 -55 0 c-126 0 -187 -67 -221 -238 -8 -41 -14 -101 -14 -134 0
-61 0 -61 -20 -43 -37 34 -93 127 -117 197 -34 98 -34 238 0 336 43 124 120
220 232 287 l60 36 3 -57 c3 -51 0 -60 -25 -86z m4458 44 c192 -172 229 -469
85 -685 -46 -69 -115 -132 -184 -170 l-52 -28 0 491 0 491 52 -28 c28 -15 73
-47 99 -71z m-3963 69 c58 -29 141 -109 184 -175 44 -69 75 -160 84 -249 12
-121 -42 -285 -124 -378 l-39 -43 -6 99 c-10 172 -61 287 -144 321 -18 8 -57
14 -88 14 l-55 0 0 42 c0 40 5 48 92 135 l92 92 -22 24 c-17 18 -22 35 -22 80
0 31 2 57 5 57 3 0 23 -9 43 -19z m3392 -461 c0 -264 -2 -480 -5 -480 -18 0
-89 45 -135 87 -233 209 -233 577 0 786 48 44 112 85 133 87 4 0 7 -216 7
-480z m-2770 -507 l0 -428 -252 -252 -251 -251 -32 23 c-17 13 -57 36 -88 50
l-57 26 0 255 0 255 41 52 c47 59 106 174 116 226 4 26 25 54 77 106 92 91
152 203 180 338 l6 27 130 0 130 0 0 -427z m2366 400 c22 -108 70 -211 133
-290 51 -64 158 -145 229 -175 l52 -22 0 -372 0 -373 -57 -26 c-31 -14 -71
-37 -88 -50 l-32 -23 -251 251 -252 252 0 428 0 427 130 0 130 0 6 -27z
m-1396 -1073 l0 -130 -27 -6 c-108 -22 -211 -70 -290 -133 -64 -51 -145 -158
-175 -228 l-22 -53 -372 0 -372 0 -30 63 c-16 34 -39 73 -50 87 l-21 25 252
253 252 252 427 0 428 0 0 -130z m1267 -122 l251 -251 -23 -32 c-13 -17 -36
-57 -50 -88 l-26 -57 -373 0 -372 0 -22 53 c-31 72 -112 177 -179 231 -84 67
-164 103 -285 130 l-28 6 0 130 0 130 427 0 428 0 252 -252z m-1022 -129 c80
-24 168 -82 228 -149 42 -46 87 -117 87 -135 0 -3 -216 -5 -480 -5 -264 0
-480 2 -480 5 0 18 45 89 87 135 140 156 352 213 558 149z m-2303 -334 l3
-315 28 -27 27 -28 315 -3 c173 -2 315 -6 315 -10 0 -22 -68 -119 -114 -165
-173 -170 -452 -200 -652 -68 -159 104 -245 258 -246 442 0 146 50 275 149
375 46 46 143 114 165 114 4 0 8 -142 10 -315z m491 278 c59 -37 113 -89 150
-146 60 -92 65 -87 -88 -87 l-135 0 0 135 c0 151 -4 146 73 98z m3364 -230
c-2 -2 -63 -2 -135 -1 l-131 3 22 45 c28 58 139 169 197 197 l45 22 3 -131 c1
-72 1 -133 -1 -135z m490 237 c236 -135 324 -451 197 -702 -35 -69 -143 -179
-211 -216 -211 -112 -463 -78 -629 85 -46 46 -114 143 -114 165 0 4 142 8 315
10 l315 3 27 28 28 27 3 315 c2 173 6 315 10 315 4 0 31 -14 59 -30z m-1744
-712 c-146 -268 -500 -354 -756 -184 -69 46 -132 115 -170 184 l-28 52 491 0
491 0 -28 -52z"/>
</g>
</svg>
